<?xml version="1.0" standalone="no"?>
<!DOCTYPE svg PUBLIC "-//W3C//DTD SVG 20010904//EN"
 "http://www.w3.org/TR/2001/REC-SVG-20010904/DTD/svg10.dtd">
<svg version="1.0" xmlns="http://www.w3.org/2000/svg"
 width="560.000000pt" height="190.000000pt" viewBox="0 0 560.000000 190.000000"
 preserveAspectRatio="xMidYMid meet">

<g transform="translate(0.000000,190.000000) scale(0.100000,-0.100000)"
fill="#000000" stroke="none">
<path d="M0 950 l0 -950 2800 0 2800 0 0 950 0 950 -2800 0 -2800 0 0 -950z
m964 500 c91 -31 139 -61 208 -130 270 -270 173 -726 -183 -861 -35 -14 -55
-17 -62 -10 -7 7 -4 12 9 17 73 23 165 79 216 130 98 98 148 216 148 354 0
214 -125 394 -328 470 -71 27 -197 37 -274 21 -165 -35 -313 -165 -368 -327
-88 -255 45 -539 294 -630 66 -24 91 -51 36 -39 -127 28 -261 139 -328 270
-154 305 23 675 358 750 79 18 198 11 274 -15z m646 -500 c0 -464 -2 -530 -15
-530 -13 0 -15 66 -15 530 0 464 2 530 15 530 13 0 15 -66 15 -530z m611 520
c115 -22 209 -94 257 -198 23 -49 27 -70 27 -147 -1 -77 -4 -98 -28 -146 -36
-75 -116 -150 -192 -179 -49 -19 -84 -24 -192 -27 l-133 -3 0 355 0 355 104 0
c57 0 127 -5 157 -10z m869 -60 l0 -70 -235 0 -235 0 0 70 0 70 235 0 235 0 0
-70z m315 -122 c48 -106 91 -196 94 -200 3 -4 47 83 96 193 l90 199 77 0 c65
0 76 -2 72 -15 -4 -9 -75 -167 -158 -352 -122 -269 -156 -337 -173 -339 -18
-3 -40 40 -177 344 -86 191 -156 350 -156 355 0 4 33 7 74 7 l73 0 88 -192z
m943 -15 l2 -202 38 -3 37 -3 3 -52 c3 -52 3 -53 -25 -53 -47 0 -52 -10 -55
-100 l-3 -85 -60 0 -60 0 -3 88 c-2 74 -5 87 -20 88 -9 0 -68 1 -129 0 l-113
-1 0 67 c0 64 2 70 102 257 56 105 105 193 110 196 4 4 45 6 90 5 l83 0 3
-202z m332 -25 c0 -256 5 -279 63 -322 34 -25 105 -26 141 -2 52 33 56 56 57
304 1 126 5 235 9 241 4 8 30 11 71 9 l64 -3 3 -219 c2 -131 -1 -239 -8 -271
-23 -111 -105 -192 -218 -216 -114 -23 -232 36 -290 145 l-27 51 -3 258 -3
257 70 0 71 0 0 -232z m-3922 20 c-3 -7 -18 -16 -35 -20 -36 -9 -57 -50 -48
-94 3 -16 8 -58 11 -94 6 -57 4 -67 -14 -83 l-20 -19 20 -20 c19 -19 20 -27
12 -97 -11 -112 -8 -143 17 -163 11 -10 30 -18 40 -18 10 0 19 -4 19 -10 0
-15 -53 -12 -77 5 -36 26 -46 73 -31 157 17 90 13 116 -18 130 -29 14 -31 24
-4 31 29 8 38 42 26 106 -19 104 -14 140 22 172 32 29 88 41 80 17z m173 -14
c27 -25 33 -75 18 -166 l-13 -81 29 -24 28 -25 -28 -22 c-26 -21 -28 -26 -21
-72 21 -149 21 -161 -12 -194 -30 -29 -92 -43 -92 -20 0 6 10 10 23 10 13 0
34 11 47 25 24 26 24 17 4 176 -6 50 -4 59 14 75 l20 17 -21 28 c-19 27 -20
33 -9 106 16 102 15 117 -6 142 -15 19 -32 27 -64 30 -5 1 -8 6 -8 12 0 17 68
4 91 -17z m2079 -114 l0 -70 -195 0 -195 0 0 70 0 70 195 0 195 0 0 -70z m64
-226 c22 -8 23 -129 2 -137 -8 -3 -113 -5 -233 -4 l-218 2 -3 59 c-2 32 -1 65
2 72 4 11 48 14 220 14 118 0 221 -3 230 -6z m-929 -304 c24 -20 18 -33 -12
-25 -37 10 -137 6 -141 -5 -2 -5 -10 -6 -17 -3 -11 4 -12 10 -5 23 15 28 146
34 175 10z m646 -8 c11 -15 15 -38 14 -88 -3 -83 -14 -94 -102 -94 -50 0 -67
4 -83 20 -24 24 -29 100 -6 100 10 0 16 -14 18 -42 l3 -43 59 -3 c32 -2 63 1
69 7 13 13 17 101 6 122 -7 13 -20 16 -66 12 -32 -3 -62 -9 -67 -13 -16 -16
-37 0 -26 20 8 14 24 20 63 22 79 5 100 1 118 -20z m641 10 c5 -5 11 -41 14
-80 5 -62 3 -73 -15 -91 -18 -18 -33 -21 -106 -21 l-85 0 0 60 c0 47 3 60 15
60 11 0 15 -12 15 -45 l0 -45 64 0 c36 0 67 4 71 9 11 19 12 121 1 130 -7 6
-45 9 -85 8 -67 -3 -98 6 -73 22 15 9 173 4 184 -7z m378 -87 c0 -87 -3 -105
-15 -105 -12 0 -15 18 -15 105 0 87 3 105 15 105 12 0 15 -18 15 -105z m434
23 l76 -83 0 83 c0 63 3 83 13 80 18 -7 23 -208 5 -208 -17 0 -198 191 -192
202 10 16 24 6 98 -74z m733 56 c18 -25 2 -37 -29 -21 -14 7 -47 13 -74 12
-43 0 -48 -2 -55 -28 -7 -27 -3 -92 7 -108 3 -5 27 -9 55 -9 37 0 49 -4 49
-15 0 -12 -13 -15 -55 -15 -75 0 -95 20 -95 94 0 103 12 114 124 110 44 -1 63
-7 73 -20z m-2985 -106 l3 -43 55 -3 c30 -2 64 2 77 9 26 14 36 9 28 -14 -8
-19 -36 -27 -102 -27 -67 0 -93 22 -93 80 0 28 4 40 14 40 10 0 16 -14 18 -42z
m2178 -18 c0 -47 -3 -60 -15 -60 -12 0 -15 13 -15 60 0 47 3 60 15 60 12 0 15
-13 15 -60z m820 0 c0 -47 -3 -60 -15 -60 -11 0 -15 12 -15 45 l0 45 -40 0
c-38 0 -49 8 -33 23 3 4 28 7 55 7 l48 0 0 -60z m-4170 -34 c0 -8 -5 -18 -11
-22 -14 -8 -33 11 -25 25 10 16 36 13 36 -3z"/>
<path d="M2102 1129 l3 -214 30 0 c54 0 109 16 147 42 46 31 88 112 88 167 0
43 -29 118 -58 149 -29 32 -89 57 -152 64 l-60 6 2 -214z"/>
<path d="M4152 1201 c-34 -65 -62 -121 -62 -125 0 -3 29 -6 65 -6 l65 0 0 125
c0 69 -1 125 -3 125 -2 0 -31 -53 -65 -119z"/>
</g>
</svg>
